<?xml version="1.0" encoding="utf-8"?>
<!-- Generator: Circuit Diagram, cdlibrary.dll 1.0.0.0 -->
<!DOCTYPE svg PUBLIC "-//W3C//DTD SVG 1.1//EN" "http://www.w3.org/Graphics/SVG/1.1/DTD/svg11.dtd">
<svg version="1.1" width="220" height="60" xmlns="http://www.w3.org/2000/svg">
	<line x1="80" y1="30" x2="107" y2="30" style="stroke:rgb(0, 0, 0);stroke-linecap:square;stroke-width:2" />
	<path d="M 109,20 M 109,30 L 109,48 L 137,30 L 109,12 L 109,30 M 137,30 A 2,2 -5 1 1 143,30 A 2,2 -5 1 1 137,30" style="fill-opacity:0;fill:rgb(0, 0, 0);stroke:rgb(0, 0, 0);stroke-linecap:square;stroke-width:2" />
	<line x1="145" y1="30" x2="190" y2="30" style="stroke:rgb(0, 0, 0);stroke-linecap:square;stroke-width:2" />
	<line x1="20" y1="20" x2="35" y2="20" style="stroke:rgb(0, 0, 0);stroke-linecap:square;stroke-width:2" />
	<line x1="20" y1="40" x2="35" y2="40" style="stroke:rgb(0, 0, 0);stroke-linecap:square;stroke-width:2" />
	<path d="M 35,20 M 35,10 L 35,50 L 59,50 M 35,10 L 59,10 M 59,50 A 5,5 90 0 0 59,10" style="fill-opacity:0;fill:rgb(0, 0, 0);stroke:rgb(0, 0, 0);stroke-linecap:square;stroke-width:2" />
	<line x1="81" y1="30" x2="90" y2="30" style="stroke:rgb(0, 0, 0);stroke-linecap:square;stroke-width:2" />
</svg>